# xmcd CD database file
#
# Track frame offsets:
#	150
#	16940
#	33303
#	48641
#	66047
#
# Disc length: 1145 seconds
#
# Revision: 0
# Processed by: cddbd v1.5.1PL0 Copyright (c) Steve Scherf et al.
# Submitted via: CDex 1.51
#
DISCID=39047705
DTITLE=Days Like Stars - Sweet Raging Battles
DYEAR=2005
DGENRE=Rock
TTITLE0=Showtime
TTITLE1=Rescue
TTITLE2=On My Own
TTITLE3=Whisper
TTITLE4=The Lie
EXTD=YEAR: 2005
EXTT0=
EXTT1=
EXTT2=
EXTT3=
EXTT4=
PLAYORDER=
